<?xml version="1.0" encoding="utf-8"?>
<!-- Generator: Adobe Illustrator 26.3.0, SVG Export Plug-In . SVG Version: 6.00 Build 0)  -->
<svg version="1.1" id="Capa_1" xmlns="http://www.w3.org/2000/svg" xmlns:xlink="http://www.w3.org/1999/xlink" x="0px" y="0px"
	 viewBox="0 0 744 539.3" style="enable-background:new 0 0 744 539.3;" xml:space="preserve">
<style type="text/css">
	.st0{fill:#F2F2F2;}
	.st1{fill:#EB455F;}
	.st2{fill:#CCCCCC;}
	.st3{fill:#FFB8B8;}
	.st4{fill:#2F2E41;}
	.st5{fill:#3F3D56;}
	.st6{opacity:0.2;enable-background:new    ;}
</style>
<path class="st0" d="M474.1,404.3v130H148.4c-37.1,0-67.3-29.2-67.3-65s30.2-65,67.3-65H474.1z"/>
<path class="st1" d="M482.1,533.3c0,2.8-2.2,5-5,5H142.6c-37.8,0-68.5-30.7-68.5-68.5s30.7-68.5,68.5-68.5l0,0h334.5
	c2.8,0,5,2.2,5,5s-2.2,5-5,5H142.6c-32.3,0-58.5,26.2-58.5,58.5s26.2,58.5,58.5,58.5l0,0h334.5C479.9,528.3,482.1,530.5,482.1,533.3
	z"/>
<path class="st2" d="M474.1,434.3h-350c-0.6,0-1-0.4-1-1s0.4-1,1-1h350c0.6,0,1,0.4,1,1S474.7,434.3,474.1,434.3z"/>
<path class="st2" d="M474.1,458.3h-350c-0.6,0-1-0.4-1-1s0.4-1,1-1h350c0.6,0,1,0.4,1,1S474.7,458.3,474.1,458.3z"/>
<path class="st2" d="M474.1,482.3h-350c-0.6,0-1-0.4-1-1s0.4-1,1-1h350c0.6,0,1,0.4,1,1S474.7,482.3,474.1,482.3z"/>
<path class="st2" d="M474.1,506.3h-350c-0.6,0-1-0.4-1-1s0.4-1,1-1h350c0.6,0,1,0.4,1,1S474.7,506.3,474.1,506.3z"/>
<path class="st0" d="M725.8,428.8L644.3,530L390.7,325.6c-28.9-23.3-34.1-64.9-11.6-92.8s64.3-31.7,93.2-8.4L725.8,428.8z"/>
<path class="st2" d="M651.1,534.2c-1.7,2.1-4.9,2.5-7,0.8L383.6,325.1c-29.5-23.7-34.1-66.9-10.4-96.3
	c23.7-29.5,66.9-34.1,96.3-10.4L730,428.3c2.2,1.7,2.5,4.9,0.8,7s-4.9,2.5-7,0.8l0,0L463.3,226.2c-25.2-20.3-62-16.3-82.3,8.8
	c-20.3,25.2-16.3,62,8.8,82.3l260.5,209.9C652.5,528.9,652.9,532.1,651.1,534.2z"/>
<path class="st2" d="M707,452.1L434.5,232.5c-0.4-0.3-0.5-1-0.2-1.4c0.3-0.4,1-0.5,1.4-0.2c0,0,0,0,0,0l272.5,219.6
	c0.4,0.3,0.5,1,0.2,1.4C708.1,452.4,707.4,452.5,707,452.1C707,452.1,707,452.1,707,452.1L707,452.1z"/>
<path class="st2" d="M692,470.8L419.4,251.2c-0.4-0.3-0.5-1-0.1-1.4c0.3-0.4,1-0.5,1.4-0.2l272.5,219.6c0.4,0.3,0.5,1,0.2,1.4
	C693,471.1,692.4,471.2,692,470.8C692,470.8,692,470.8,692,470.8z"/>
<path class="st2" d="M676.9,489.5L404.4,269.9c-0.4-0.3-0.5-1-0.1-1.4c0.3-0.4,1-0.5,1.4-0.2l272.5,219.6c0.4,0.3,0.5,1,0.2,1.4
	C678,489.8,677.3,489.8,676.9,489.5C676.9,489.5,676.9,489.5,676.9,489.5z"/>
<path class="st2" d="M661.8,508.2L389.3,288.6c-0.4-0.3-0.5-1-0.2-1.4c0.3-0.4,1-0.5,1.4-0.2c0,0,0,0,0,0l272.5,219.6
	c0.4,0.3,0.5,1,0.2,1.4C662.9,508.5,662.3,508.5,661.8,508.2C661.8,508.2,661.8,508.2,661.8,508.2z"/>
<polygon class="st3" points="338.1,390.6 326.6,390.6 321.2,346.5 338.1,346.5 "/>
<path class="st4" d="M318.5,387.4h22l0,0v13.9l0,0h-35.9l0,0l0,0C304.6,393.6,310.8,387.4,318.5,387.4L318.5,387.4z"/>
<polygon class="st3" points="221.3,390.6 209.9,390.6 204.4,346.5 221.3,346.5 "/>
<path class="st4" d="M201.7,387.4h22l0,0v13.9l0,0h-35.9l0,0l0,0C187.8,393.6,194,387.4,201.7,387.4
	C201.7,387.4,201.7,387.4,201.7,387.4z"/>
<path class="st4" d="M259.5,63.5v-5c0-17.8,14.4-32.2,32.2-32.2h0c17.8,0,32.2,14.4,32.2,32.2l0,0v5c0,12.8-10.4,23.2-23.2,23.2l0,0
	h-18C269.9,86.8,259.5,76.4,259.5,63.5C259.5,63.5,259.5,63.5,259.5,63.5z"/>
<circle class="st3" cx="291.7" cy="63.9" r="24.6"/>
<path class="st3" d="M406.5,196.1"/>
<path class="st3" d="M158.1,148.4c3.8-3.6,9.7-3.4,13.3,0.4c0.4,0.4,0.7,0.8,1,1.3l21.1-4l5.5,12.2l-29.8,5.2
	c-4.5,2.6-10.3,1-12.8-3.6C154.2,156.1,154.9,151.3,158.1,148.4z"/>
<path class="st2" d="M272.6,104l0.3,0.4l-34.5,22.7l-58.3,18.6c-1.6,0.5-2.6,2.1-2.4,3.7l1.3,10.9c0.2,1.9,2,3.3,3.9,3.1
	c0.1,0,0.2,0,0.3-0.1l54.8-11.8c2.7-0.6,5.2-1.7,7.4-3.2l38.8-27.6c2.9-2,4.4-5.4,4.2-8.9c-0.5-5.5-5.3-9.6-10.8-9.1
	c-1.7,0.1-3.3,0.7-4.7,1.6L272.6,104z"/>
<path class="st4" d="M326.9,378.1c-1.8,0-3.4-1.1-4.1-2.7l-52.4-129.5c-0.3-0.8-1.2-1.1-2-0.8c-0.4,0.2-0.7,0.5-0.8,0.9l-42.8,126.1
	c-0.7,2.4-3.2,3.7-5.6,3c-0.1,0-0.2-0.1-0.3-0.1l-14.3-5.4c-1.6-0.6-2.7-2-2.9-3.7c-6.5-56.2,49.8-198,50.4-199.5l0.2-0.4l51.3,11.3
	l0.1,0.1c20.5,22.3,37.3,163.1,40.4,191.1c0.2,2.1-1,4.1-3,4.7l-12.7,4.5C327.9,378,327.4,378.1,326.9,378.1z"/>
<path class="st2" d="M282.7,182c-12.4,0-26.3-2.5-30.5-12.7l-0.1-0.2l0.1-0.2c3.4-5.5,7.8-14.9,5.4-16.7c-4.7-3.5-7-9.2-6.8-17
	c0.4-17,12-32,28.8-37.5h0c4.7-1.5,9.4-2.7,14.3-3.7c7.1-1.4,14.5,0.4,20.1,5c5.7,4.6,9,11.5,9.1,18.9c0.2,18.1-2.6,43.4-16.9,60.7
	c-0.7,0.8-1.6,1.3-2.6,1.5C296.6,181.3,289.7,182,282.7,182z"/>
<path class="st3" d="M278.1,181.3c1.4-5,6.6-8,11.7-6.7c0.5,0.1,1,0.3,1.4,0.5l16-14.5l11.1,7.5l-22.9,20.2
	c-2.1,3.8-6.6,5.7-10.8,4.6C279.6,191.6,276.7,186.4,278.1,181.3C278,181.4,278,181.4,278.1,181.3z"/>
<path class="st2" d="M304.6,181.5c-1,0-2-0.4-2.8-1l-6.3-5.2c-1.9-1.6-2.2-4.4-0.6-6.3c0.2-0.3,0.5-0.5,0.7-0.7L322,148
	c0.7-0.5,0.8-1.4,0.3-2.1L306,124.3c-3.9-5.2-3.5-12.4,0.9-17.1l0,0c4.7-5.1,12.5-5.7,17.9-1.4l0.1,0.1l17,24.4
	c6.6,5.2,7.8,14.7,2.6,21.3c-0.8,1.1-1.8,2-2.9,2.9l-34.2,26.1C306.5,181.2,305.6,181.5,304.6,181.5z"/>
<path class="st4" d="M270,57V44.8l21.8-9.5l20.7,9.5V57c0,1.1-0.9,2-2,2H272C270.9,59,270,58.1,270,57z"/>
<path class="st4" d="M290.7,27.9c-3.2-10.2,3.5-22,13.5-26s21.8-1.2,30.2,5.5s13.6,16.7,16.3,27.1s3.3,21.2,3.8,31.9
	c12.2,2.2,20.5,16.7,16.3,28.4s-19.9,17.5-30.7,11.4s-13.9-22.5-6.1-32.1c9.2-11.3,7.4-27.9-3.9-37.1c-7.5-6.1-17.8-7.6-26.8-3.8
	C297.2,35.5,289.7,29,290.7,27.9z"/>
<path class="st1" d="M153.6,101.1c-14.6-0.1-29-3.3-42.3-9.3c-1.6-0.7-2.7-2.3-2.7-4.1V51.3c0-2.5,2-4.5,4.5-4.5h81
	c2.5,0,4.5,2,4.5,4.5v36.4c0,1.8-1,3.4-2.7,4.1l0,0C182.7,97.8,168.2,101,153.6,101.1z"/>
<path class="st1" d="M153.6,71.6c-0.6,0-1.2-0.1-1.7-0.4L87.6,44.1c-2.3-1-3.4-3.6-2.4-5.9c0.5-1.1,1.4-2,2.5-2.5L152,11.4
	c1-0.4,2.2-0.4,3.2,0l63.4,24.4c2.3,0.9,3.5,3.5,2.6,5.8c-0.4,1.1-1.3,2-2.4,2.5l-63.4,27.1C154.8,71.5,154.2,71.6,153.6,71.6z"/>
<circle class="st5" cx="116.1" cy="88.3" r="6"/>
<path class="st6" d="M219,40.3l-63.4,27.1c-1,0.4-2.1,0.4-3.1,0L88.2,40.3c-0.8-0.3-1.5-0.9-1.9-1.7c-1.1,1.9-0.4,4.4,1.5,5.5
	c0.1,0.1,0.3,0.2,0.4,0.2l64.2,27.1c1,0.4,2.1,0.4,3.1,0L219,44.3c2-0.9,3-3.2,2.1-5.2c-0.1-0.1-0.1-0.3-0.2-0.4
	C220.4,39.4,219.8,39.9,219,40.3z"/>
<path class="st5" d="M116.6,88.3c0.6,0,1-0.4,1-1V53.8l33-12c0.6,0,1-0.4,1-1s-0.4-1-1-1l-33,12c-0.5,0-1.1,0.2-1.4,0.6
	c-0.4,0.4-0.6,0.9-0.6,1.4v33.5C115.6,87.8,116.1,88.3,116.6,88.3z"/>
</svg>
